<?xml version="1.0" encoding="utf-8"?>
<!-- Generator: Adobe Illustrator 13.0.2, SVG Export Plug-In . SVG Version: 6.00 Build 14948)  -->
<!DOCTYPE svg PUBLIC "-//W3C//DTD SVG 1.0//EN" "http://www.w3.org/TR/2001/REC-SVG-20010904/DTD/svg10.dtd">
<svg version="1.0" id="Ebene_1" xmlns="http://www.w3.org/2000/svg" xmlns:xlink="http://www.w3.org/1999/xlink" x="0px" y="0px"
	 width="595.275px" height="105.836px" viewBox="0 0 595.275 105.836" enable-background="new 0 0 595.275 105.836"
	 xml:space="preserve">
<path fill="#111211" d="M595.275,105.836V7.33h-35.213v98.506H595.275z M551.685,105.836v-23.01H513.71V67.489h34.752V45.678H513.71
	V30.34h37.976V7.33h-72.498v98.506H551.685z M396.287,30.34h20.709v75.496h35.214V30.34h20.942V7.33h-76.865V30.34z
	 M338.804,105.836V65.09h1.954c5.225,0,8.744,0.914,10.552,2.734c1.806,1.818,2.711,5.79,2.711,11.904
	c0,1.571-0.069,3.912-0.196,7.016c-0.129,3.104-0.193,5.421-0.193,6.947c0,2.966,0.266,5.353,0.802,7.15
	c0.534,1.801,1.401,3.463,2.604,4.993h35.961c-1.4-1.664-2.403-3.372-3.001-5.124c-0.596-1.753-0.891-4.141-0.891-7.154
	c0-0.358,0.021-1.09,0.065-2.188c0.044-1.102,0.063-2.036,0.063-2.797c0-13.312-1.261-21.694-3.78-25.16
	c-2.525-3.46-7.232-5.62-14.13-6.473v-1.08c6.144-1.168,10.741-3.598,13.795-7.289c3.048-3.688,4.579-8.637,4.579-14.851
	c0-9.132-2.638-15.813-7.91-20.044c-5.271-4.228-13.606-6.346-25.008-6.346h-52.24v98.506H338.804z M339.061,26.264
	c0.388,0,0.953-0.023,1.689-0.065c0.739-0.047,1.28-0.069,1.631-0.069c5.508,0,9.476,0.805,11.904,2.412
	c2.434,1.606,3.647,4.199,3.647,7.77c0,3.577-1.192,6.135-3.582,7.674c-2.386,1.538-6.377,2.306-11.971,2.306
	c-0.351,0-0.892-0.02-1.632-0.065c-0.735-0.047-1.302-0.069-1.688-0.069L339.061,26.264L339.061,26.264z M247.106,23.087h1.747
	l7.253,48.476h-16.319L247.106,23.087z M233.958,105.836l2.526-15.102h22.858l2.589,15.102h35.549L272.163,7.33h-48.372
	l-25.273,98.506H233.958z M149.885,105.836V74.68h18.866c11.483,0,19.846-2.687,25.074-8.056c5.229-5.373,7.844-13.922,7.844-25.653
	c0-11.952-2.68-20.553-8.038-25.788c-5.357-5.235-14.207-7.853-26.555-7.853h-51.484v98.506H149.885z M149.885,27.703h2.1
	c5.164,0,8.906,1.078,11.224,3.228c2.314,2.15,3.478,5.62,3.478,10.413c0,4.75-1.15,8.182-3.443,10.285
	c-2.3,2.104-6.048,3.158-11.257,3.158h-2.099V27.703H149.885z"/>
<path fill="#FFFFFF" d="M591.719,101.563V3.06h-35.215v98.502H591.719z M548.126,101.563V78.557h-37.977V63.216H544.9V41.407
	h-34.751V26.068h37.977V3.06h-72.498v98.502H548.126z M392.728,26.068h20.709v75.495h35.212V26.068h20.944V3.06h-76.865V26.068
	L392.728,26.068z M335.244,101.563V60.82h1.955c5.228,0,8.743,0.914,10.55,2.734c1.809,1.818,2.713,5.789,2.713,11.903
	c0,1.573-0.068,3.914-0.197,7.013c-0.127,3.106-0.193,5.424-0.193,6.951c0,2.967,0.267,5.352,0.802,7.15
	c0.536,1.802,1.401,3.462,2.604,4.99h35.961c-1.4-1.662-2.4-3.367-2.999-5.121c-0.597-1.752-0.891-4.139-0.891-7.153
	c0-0.358,0.022-1.09,0.063-2.193c0.043-1.098,0.064-2.03,0.064-2.797c0-13.308-1.263-21.69-3.783-25.155
	c-2.523-3.461-7.23-5.621-14.13-6.475V51.59c6.143-1.168,10.742-3.601,13.797-7.288c3.048-3.688,4.578-8.637,4.578-14.853
	c0-9.133-2.64-15.813-7.91-20.046c-5.271-4.228-13.607-6.343-25.006-6.343h-52.242v98.502H335.244z M335.501,21.993
	c0.39,0,0.954-0.022,1.692-0.067c0.736-0.043,1.278-0.066,1.627-0.066c5.51,0,9.479,0.806,11.906,2.413
	c2.432,1.607,3.647,4.196,3.647,7.77c0,3.577-1.192,6.134-3.581,7.672c-2.389,1.54-6.374,2.307-11.974,2.307
	c-0.349,0-0.891-0.022-1.627-0.065c-0.738-0.045-1.304-0.069-1.693-0.069V21.993H335.501z M243.546,18.813h1.747l7.253,48.478
	h-16.318L243.546,18.813z M230.399,101.563l2.529-15.098h22.855l2.589,15.098h35.55L268.603,3.06h-48.372l-25.273,98.502H230.399z
	 M146.326,101.563V70.406h18.866c11.486,0,19.847-2.684,25.073-8.055c5.229-5.371,7.844-13.918,7.844-25.651
	c0-11.954-2.677-20.552-8.038-25.787c-5.358-5.236-14.207-7.853-26.555-7.853h-51.483v98.502H146.326z M146.326,23.432h2.099
	c5.166,0,8.906,1.08,11.225,3.229c2.317,2.148,3.479,5.62,3.479,10.413c0,4.749-1.152,8.177-3.444,10.284
	c-2.299,2.103-6.05,3.157-11.259,3.157h-2.099V23.432z"/>
<path fill="#111211" d="M80.604,33.711c0-1.587,0.34-2.78,1.017-3.573c0.679-0.797,1.698-1.194,3.061-1.194
	c1.452,0,2.543,0.397,3.268,1.194c0.728,0.793,1.09,1.986,1.09,3.573v6.103h-8.435V33.711z M89.04,53.568v4.346
	c0,1.613-0.315,2.798-0.948,3.555c-0.631,0.756-1.641,1.135-3.03,1.135c-1.582,0-2.722-0.361-3.414-1.086
	c-0.697-0.724-1.042-1.925-1.042-3.604v-9.063h20.709V34.108c0-5.306-1.367-9.264-4.098-11.866
	c-2.729-2.603-6.888-3.905-12.476-3.905c-5.972,0-10.371,1.188-13.193,3.56c-2.826,2.375-4.238,6.08-4.238,11.118v26.036
	c0,4.967,1.427,8.566,4.287,10.807c2.854,2.236,7.479,3.354,13.863,3.354c5.492,0,9.508-1.293,12.046-3.874
	c2.538-2.583,3.809-6.656,3.809-12.217v-3.553H89.04z M58.582,14.015V0H44.904v14.015H58.582z M58.582,71.773V19.907H44.904v51.866
	H58.582z M0,0v71.773h16.855c7.189,0,12.211-1.076,15.055-3.23c2.846-2.152,4.271-5.895,4.271-11.225V14.11
	c0-5.129-1.441-8.763-4.316-10.901C28.987,1.07,23.983,0,16.855,0H0z M14.932,12.86c0.447-0.014,1.091-0.023,1.924-0.023
	c2.056,0,3.465,0.352,4.235,1.056c0.77,0.702,1.153,1.953,1.153,3.751v36.288c0,1.768-0.362,3.043-1.082,3.829
	c-0.722,0.785-1.936,1.177-3.634,1.177c-0.097,0-0.577-0.022-1.444-0.074c-0.868-0.049-1.667-0.09-2.406-0.123V12.934
	C14.064,12.903,14.48,12.877,14.932,12.86z"/>
<path fill="#981436" d="M588.486,99.104V1.798h-35.124v97.304h35.124V99.104z M545.006,99.104V76.375h-37.88V61.223h34.666V39.678
	h-34.666V24.526h37.88V1.798h-72.316v97.304h72.316V99.104z M389.995,24.526h20.657v74.578h35.126V24.526h20.891V1.798h-76.674
	V24.526L389.995,24.526z M332.655,99.104v-40.25h1.951c5.213,0,8.721,0.901,10.525,2.699c1.801,1.799,2.706,5.721,2.706,11.762
	c0,1.552-0.069,3.865-0.196,6.928c-0.132,3.068-0.194,5.357-0.194,6.865c0,2.933,0.266,5.287,0.798,7.063
	c0.534,1.781,1.4,3.422,2.6,4.934h35.87c-1.4-1.646-2.396-3.334-2.993-5.063c-0.594-1.732-0.889-4.087-0.889-7.064
	c0-0.357,0.021-1.076,0.063-2.164c0.043-1.086,0.065-2.008,0.065-2.763c0-13.147-1.26-21.432-3.773-24.851
	c-2.518-3.419-7.213-5.555-14.096-6.396v-1.064c6.129-1.156,10.717-3.558,13.763-7.2c3.041-3.645,4.566-8.534,4.566-14.671
	c0-9.02-2.63-15.62-7.891-19.801C370.272,3.89,361.957,1.8,350.59,1.8h-52.112v97.304H332.655L332.655,99.104z M332.914,20.501
	c0.391,0,0.95-0.023,1.688-0.065c0.733-0.047,1.276-0.069,1.624-0.069c5.495,0,9.451,0.797,11.878,2.383
	c2.424,1.587,3.637,4.148,3.637,7.676c0,3.534-1.19,6.061-3.574,7.579c-2.38,1.522-6.358,2.281-11.939,2.281
	c-0.348,0-0.891-0.023-1.624-0.069c-0.737-0.043-1.298-0.065-1.688-0.065L332.914,20.501L332.914,20.501z M241.189,17.361h1.744
	l7.232,47.887H233.89L241.189,17.361z M228.073,99.104l2.523-14.916h22.798l2.583,14.916h35.461L266.183,1.798h-48.249
	l-25.211,97.304h35.35V99.104z M144.211,99.104V68.325h18.816c11.458,0,19.798-2.651,25.014-7.958
	c5.215-5.305,7.824-13.75,7.824-25.338c0-11.807-2.671-20.302-8.018-25.471C182.503,4.386,173.675,1.8,161.358,1.8h-51.355v97.304
	H144.211L144.211,99.104z M144.211,21.923h2.096c5.148,0,8.88,1.064,11.194,3.188c2.311,2.124,3.469,5.553,3.469,10.289
	c0,4.689-1.148,8.077-3.438,10.155c-2.292,2.081-6.031,3.12-11.227,3.12h-2.096L144.211,21.923L144.211,21.923z"/>
</svg>
